# xmcd
# 
# Track frame offsets:
#     150
#     16972
#     30674
#     46345
#     63136
#     81400
#     97041
# 
# Disc length: 1751
# 
# Revision: 0
# Processed by: cddbd v1.5.2PL0 Copyright (c) Steve Scherf et al.
# Submitted via: fre:ac v1.0.17
# 
DISCID=5006d507
DTITLE=The Cares Company - Who cares ?
DYEAR=1998
DGENRE=Blues
TTITLE0=Sweet 16
TTITLE1=I wish you could see me now
TTITLE2=Trouble monkey
TTITLE3=Use me
TTITLE4=Whatever happenend to the blues
TTITLE5=Waht's done is done
TTITLE6=Stealaway
EXTD=
EXTT0=
EXTT1=
EXTT2=
EXTT3=
EXTT4=
EXTT5=
EXTT6=
PLAYORDER=
